<svg id="Layer_1" data-name="Layer 1" xmlns="http://www.w3.org/2000/svg" viewBox="0 0 101 101"><defs><style>.cls-1{fill:#fff;}</style></defs><title>Artboard 2 copy 2</title><path d="M34.5,74H7.6a1.5,1.5,0,0,1-1.5-1.5c0-14.84,11.84-26.92,26.39-26.92a1.5,1.5,0,0,1,0,3A23.65,23.65,0,0,0,9.14,71H34.5a1.5,1.5,0,0,1,0,3Z"/><path d="M32.5,41A16.5,16.5,0,1,1,49,24.5,16.52,16.52,0,0,1,32.5,41Zm0-30A13.5,13.5,0,1,0,46,24.5,13.52,13.52,0,0,0,32.5,11Z"/><path d="M32.48,58.07A29.17,29.17,0,0,1,17.43,53.9,1.5,1.5,0,1,1,19,51.33a26.17,26.17,0,0,0,13.51,3.74,1.5,1.5,0,0,1,0,3Z"/><path d="M45.49,22.38A11.84,11.84,0,0,1,36.81,19c-3,1.68-11.44,5.4-18.27.09a1.5,1.5,0,1,1,1.84-2.37c6.62,5.15,15.84-.85,15.93-.91a1.5,1.5,0,0,1,2.1.45c.08.12,2.15,3.17,7.08,3.17a1.5,1.5,0,0,1,0,3Z"/><path d="M95.5,63h-27a1.5,1.5,0,0,1,0-3H93.93A16.17,16.17,0,0,0,78,45.12a15.63,15.63,0,0,0-9.51,3.2,1.5,1.5,0,0,1-1.81-2.39A18.6,18.6,0,0,1,78,42.12,19.21,19.21,0,0,1,97,61.5,1.5,1.5,0,0,1,95.5,63Z"/><path d="M78,39A13,13,0,1,1,91,26,13,13,0,0,1,78,39Zm0-23A10,10,0,1,0,88,26,10,10,0,0,0,78,16Z"/><path d="M85.74,27.4A13,13,0,0,1,73,16.4a1.5,1.5,0,1,1,3-.44,9.92,9.92,0,0,0,13,7.91,1.5,1.5,0,1,1,1,2.84A12.88,12.88,0,0,1,85.74,27.4Z"/><path d="M92.5,52a1.5,1.5,0,0,1-1.2-2.4c3.18-4.23,1.45-8.31-.55-13C89.4,33.4,88,30.12,88,26.5a1.5,1.5,0,0,1,3,0c0,3,1.27,6,2.51,8.91,2.17,5.1,4.41,10.37.19,16A1.5,1.5,0,0,1,92.5,52Z"/><path d="M62.22,41.89a1.46,1.46,0,0,1-.47-.08,1.48,1.48,0,0,1-1-1.86c0-.12.19-.49.42-1,1-2.27,3.85-9.17,3.85-12.41a1.5,1.5,0,0,1,3,0c0,3.44-2.33,9.39-4.08,13.57-.17.41-.29.69-.33.8A1.52,1.52,0,0,1,62.22,41.89Z"/><path d="M68.72,92h-35a1.5,1.5,0,0,1-1.5-1.5,19,19,0,1,1,38,0A1.5,1.5,0,0,1,68.72,92ZM35.28,89H67.15a16,16,0,0,0-31.87,0Z"/><path d="M51,68A13,13,0,1,1,64,55,13,13,0,0,1,51,68Zm0-23A10,10,0,1,0,61,55,10,10,0,0,0,51,45Z"/><path d="M51.22,81.36a21.25,21.25,0,0,1-11-3,1.5,1.5,0,1,1,1.55-2.57,18.31,18.31,0,0,0,18.85,0,1.5,1.5,0,1,1,1.55,2.57A21.26,21.26,0,0,1,51.22,81.36Z"/><path class="cls-1" d="M41.44,50.6C47.13,55,53.64,50,53.64,50s4.29,4.66,7.49.39"/><path d="M46.67,53.9a9.8,9.8,0,0,1-6.15-2.11,1.5,1.5,0,0,1,1.84-2.37C47,53.06,52.5,49,52.73,48.79a1.5,1.5,0,0,1,2,.17c.46.5,1.95,1.79,3.33,1.71a2.54,2.54,0,0,0,1.86-1.2,1.5,1.5,0,1,1,2.4,1.8,5.43,5.43,0,0,1-4.12,2.4,7.29,7.29,0,0,1-4.71-1.78A13.57,13.57,0,0,1,46.67,53.9Z"/></svg>