<svg width="49" height="49" viewBox="0 0 49 49" fill="none" xmlns="http://www.w3.org/2000/svg">
<path d="M25.922 46.9553C21.5492 47.2314 17.1909 46.2249 13.3821 44.0591C9.57328 41.8934 6.47967 38.6627 4.48101 34.7635C2.48235 30.8644 1.66561 26.4666 2.13105 22.1099C2.59648 17.7532 4.32384 13.6271 7.10109 10.2382C9.87834 6.84935 13.5846 4.34508 17.765 3.03283C21.9454 1.72057 26.418 1.65742 30.6337 2.85114C34.8495 4.04487 38.625 6.44351 41.4968 9.75264C44.3687 13.0618 46.2118 17.1374 46.8 21.4793" stroke="black" stroke-width="3" stroke-linecap="round" stroke-linejoin="round"/>
<path d="M14.658 31.9993C15.1139 31.9992 15.5638 31.8953 15.9736 31.6953C16.3833 31.4953 16.742 31.2046 17.0226 30.8452C17.3031 30.4858 17.498 30.0672 17.5925 29.6212C17.687 29.1752 17.6787 28.7135 17.568 28.2713L16.068 22.2713C15.9057 21.6223 15.5312 21.0463 15.0039 20.6346C14.4767 20.223 13.827 19.9993 13.158 19.9993H2.45204C1.62479 24.063 1.93716 28.2763 3.35462 32.1736C4.77208 36.0709 7.23944 39.5005 10.484 42.0833L12.5 31.9993H14.658Z" stroke="black" stroke-width="3" stroke-linecap="round" stroke-linejoin="round"/>
<path d="M42.47 10.9993H34.342C33.6731 10.9993 33.0234 11.223 32.4962 11.6346C31.9689 12.0463 31.5944 12.6223 31.432 13.2713L29.932 19.2713" stroke="black" stroke-width="3" stroke-linecap="round" stroke-linejoin="round"/>
<path d="M45.14 27.6572C43.9886 26.5591 42.4483 25.9633 40.8576 26.0008C39.267 26.0383 37.7564 26.7061 36.658 27.8572L35 29.5952L33.342 27.8572C32.2379 26.7321 30.7354 26.0867 29.1593 26.0605C27.5831 26.0343 26.06 26.6294 24.9191 27.7172C23.7782 28.805 23.1113 30.2981 23.0624 31.8737C23.0136 33.4493 23.5867 34.9808 24.658 36.1372L35 46.9972L45.342 36.1372C46.4393 34.9857 47.0343 33.4456 46.9965 31.8554C46.9586 30.2653 46.2908 28.7552 45.14 27.6572V27.6572Z" stroke="black" stroke-width="3" stroke-linecap="round" stroke-linejoin="round"/>
</svg>