<svg width="49" height="43" viewBox="0 0 49 43" fill="none" xmlns="http://www.w3.org/2000/svg">
<path d="M47 15.5C47 17.0913 46.3679 18.6174 45.2426 19.7426C44.1174 20.8679 42.5913 21.5 41 21.5" stroke="black" stroke-width="3" stroke-linecap="round" stroke-linejoin="round"/>
<path d="M17 12.5C18.8654 11.5767 20.9186 11.0964 23 11.0964C25.0814 11.0964 27.1346 11.5767 29 12.5" stroke="black" stroke-width="3" stroke-linecap="round" stroke-linejoin="round"/>
<path d="M13.25 18.5C13.1017 18.5 12.9567 18.544 12.8333 18.6264C12.71 18.7088 12.6139 18.8259 12.5571 18.963C12.5003 19.1 12.4855 19.2508 12.5144 19.3963C12.5434 19.5418 12.6148 19.6754 12.7197 19.7803C12.8246 19.8852 12.9582 19.9566 13.1037 19.9856C13.2492 20.0145 13.4 19.9997 13.537 19.9429C13.6741 19.8861 13.7912 19.79 13.8736 19.6667C13.956 19.5433 14 19.3983 14 19.25C14 19.0511 13.921 18.8603 13.7803 18.7197C13.6397 18.579 13.4489 18.5 13.25 18.5Z" stroke="black" stroke-width="3" stroke-linecap="round" stroke-linejoin="round"/>
<path d="M16.3 6.266C13.952 2.012 8 2 8 2L9.252 10.768C7.61486 12.5521 6.40079 14.6822 5.7 17H2V29H6.98C8.01569 30.8159 9.37866 32.4244 11 33.744V39.5C11 39.8978 11.158 40.2794 11.4393 40.5607C11.7206 40.842 12.1022 41 12.5 41H15.5C15.8978 41 16.2794 40.842 16.5607 40.5607C16.842 40.2794 17 39.8978 17 39.5V37.018C20.8929 38.3197 25.1024 38.3275 29 37.04V39.5C29 39.8978 29.158 40.2794 29.4393 40.5607C29.7206 40.842 30.1022 41 30.5 41H33.5C33.8978 41 34.2794 40.842 34.5607 40.5607C34.842 40.2794 35 39.8978 35 39.5V33.774C36.8504 32.3035 38.3492 30.4385 39.3872 28.3151C40.4252 26.1917 40.9762 23.8634 41 21.5C41 8.512 26.9 2.722 16.3 6.266Z" stroke="black" stroke-width="3" stroke-linecap="round" stroke-linejoin="round"/>
</svg>
