<svg width="13" height="24" viewBox="0 0 13 24" fill="none" xmlns="http://www.w3.org/2000/svg">
<path fill-rule="evenodd" clip-rule="evenodd" d="M4.16151 1.13712C4.83119 0.409032 5.73948 0 6.68655 0C7.63363 0 8.54192 0.409032 9.2116 1.13712C9.88128 1.8652 10.2575 2.85269 10.2575 3.88235C10.2575 4.91202 9.88128 5.89951 9.2116 6.62759C8.54192 7.35567 7.63363 7.76471 6.68655 7.76471C5.73948 7.76471 4.83119 7.35567 4.16151 6.62759C3.49182 5.89951 3.1156 4.91202 3.1156 3.88235C3.1156 2.85269 3.49182 1.8652 4.16151 1.13712ZM6.68655 1.55294C6.11831 1.55294 5.57334 1.79836 5.17153 2.23521C4.76972 2.67206 4.54398 3.26455 4.54398 3.88235C4.54398 4.50015 4.76972 5.09265 5.17153 5.5295C5.57334 5.96635 6.11831 6.21177 6.68655 6.21177C7.2548 6.21177 7.79977 5.96635 8.20158 5.5295C8.60339 5.09265 8.82913 4.50015 8.82913 3.88235C8.82913 3.26455 8.60339 2.67206 8.20158 2.23521C7.79977 1.79836 7.2548 1.55294 6.68655 1.55294Z" fill="black"/>
<path fill-rule="evenodd" clip-rule="evenodd" d="M2.03682 9.49375C3.17528 8.38659 4.71936 7.76459 6.32938 7.76459C7.9394 7.76459 9.48347 8.38659 10.6219 9.49375C11.7604 10.6009 12.4 12.1026 12.4 13.6683V15.8822C12.4 16.2898 12.0602 16.6202 11.6411 16.6202H10.0514L9.3609 23.3353C9.32211 23.7126 8.99569 23.9999 8.60585 23.9999H4.05291C3.66306 23.9999 3.33664 23.7126 3.29785 23.3353L2.60736 16.6202H1.01761C0.598526 16.6202 0.258789 16.2898 0.258789 15.8822V13.6683C0.258789 12.1026 0.898367 10.6009 2.03682 9.49375ZM6.32938 9.24052C5.12186 9.24052 3.9638 9.70702 3.10996 10.5374C2.25612 11.3678 1.77644 12.494 1.77644 13.6683V15.1443H3.29408C3.68393 15.1443 4.01035 15.4316 4.04914 15.8088L4.73963 22.5239H7.91912L8.60961 15.8088C8.6484 15.4316 8.97482 15.1443 9.36467 15.1443H10.8823V13.6683C10.8823 12.494 10.4026 11.3678 9.54879 10.5374C8.69495 9.70702 7.53689 9.24052 6.32938 9.24052Z" fill="black"/>
</svg>
