<svg width="49" height="49" viewBox="0 0 49 49" fill="none" xmlns="http://www.w3.org/2000/svg">
<path d="M8 47L3.972 42.238C2.69547 40.6422 2.00001 38.6595 2 36.616V26.274C2 25.4783 2.31607 24.7153 2.87868 24.1527C3.44129 23.5901 4.20435 23.274 5 23.274V23.274C5.79565 23.274 6.55871 23.5901 7.12132 24.1527C7.68393 24.7153 8 25.4783 8 26.274V33.774" stroke="black" stroke-width="3" stroke-linecap="round" stroke-linejoin="round"/>
<path d="M17 47V41C17.0008 39.2203 16.4739 37.4803 15.486 36L13.202 32.58C13.0063 32.2558 12.7468 31.9747 12.4394 31.7537C12.1319 31.5327 11.7829 31.3763 11.4132 31.294C11.0436 31.2118 10.6612 31.2053 10.289 31.2751C9.91684 31.3449 9.56269 31.4894 9.24798 31.7V31.7C8.68264 32.0788 8.27459 32.6505 8.10012 33.3083C7.92565 33.966 7.9967 34.6648 8.29998 35.274L11.004 39.774" stroke="black" stroke-width="3" stroke-linecap="round" stroke-linejoin="round"/>
<path d="M41 47L45.028 42.238C46.3045 40.6422 47 38.6595 47 36.616V26.274C47 25.4783 46.6839 24.7153 46.1213 24.1527C45.5587 23.5901 44.7956 23.274 44 23.274C43.2044 23.274 42.4413 23.5901 41.8787 24.1527C41.3161 24.7153 41 25.4783 41 26.274V33.774" stroke="black" stroke-width="3" stroke-linecap="round" stroke-linejoin="round"/>
<path d="M32 47V41C31.9992 39.2203 32.5261 37.4803 33.514 36L35.798 32.576C35.993 32.2512 36.252 31.9693 36.5591 31.7475C36.8663 31.5257 37.2152 31.3685 37.5849 31.2855C37.9546 31.2025 38.3372 31.1954 38.7097 31.2645C39.0822 31.3337 39.4368 31.4778 39.752 31.688V31.688C40.32 32.0664 40.7302 32.6393 40.9055 33.2989C41.0808 33.9585 41.0091 34.6595 40.704 35.27L38 39.77" stroke="black" stroke-width="3" stroke-linecap="round" stroke-linejoin="round"/>
<path d="M17 17H20" stroke="black" stroke-width="3" stroke-linecap="round" stroke-linejoin="round"/>
<path d="M29 17H32" stroke="black" stroke-width="3" stroke-linecap="round" stroke-linejoin="round"/>
<path d="M14 23V26" stroke="black" stroke-width="3" stroke-linecap="round" stroke-linejoin="round"/>
<path d="M35 23V26" stroke="black" stroke-width="3" stroke-linecap="round" stroke-linejoin="round"/>
<path d="M37.5 14.744L35 11L32.684 4.052C32.485 3.45454 32.103 2.93486 31.5922 2.56657C31.0814 2.19827 30.4677 2.00006 29.838 2H19.162C18.5322 2.00006 17.9185 2.19827 17.4077 2.56657C16.8969 2.93486 16.515 3.45454 16.316 4.052L14 11L11.5 14.744C11.1714 15.2368 10.996 15.8157 10.996 16.408V20.008C10.996 20.8036 11.312 21.5667 11.8747 22.1293C12.4373 22.6919 13.2003 23.008 13.996 23.008H34.996C35.7916 23.008 36.5547 22.6919 37.1173 22.1293C37.6799 21.5667 37.996 20.8036 37.996 20.008V16.408C37.9983 15.8166 37.8257 15.2376 37.5 14.744V14.744Z" stroke="black" stroke-width="3" stroke-linecap="round" stroke-linejoin="round"/>
<path d="M14 11H35" stroke="black" stroke-width="3" stroke-linecap="round" stroke-linejoin="round"/>
</svg>
